<svg id="Layer_1" data-name="Layer 1" xmlns="http://www.w3.org/2000/svg" viewBox="0 0 286.4 365.06"><defs><style>.cls-1{fill:none;}.cls-2{font-size:64.53px;font-family:MyriadPro-Regular, Myriad Pro;}</style></defs><path d="M896.08,448.31c0-6.95,0-13.18,0-19.41.08-33.74,22-59.44,55.28-64.78,35.74-5.74,71,22.9,72.48,59,.33,8.1,0,16.22,0,24.83,1.76.09,3.2.17,4.63.22,7,.22,14.12-.39,20.93.82,16.22,2.89,26.23,15.38,28.36,33.26,4.06,34.1,8.36,68.17,12.55,102.25,3.86,31.48,7.81,63,11.47,94.46.84,7.25,1.79,14.81.67,21.91a32.76,32.76,0,0,1-32.11,27.37q-109.89.33-219.77,0c-21.6-.08-36.44-18.75-33.68-40.24,4.37-34.06,8.43-68.16,12.64-102.24q6.2-50.19,12.44-100.37c.4-3.22.63-6.48,1.29-9.65a34.3,34.3,0,0,1,32-27.39C882,448,888.74,448.31,896.08,448.31Zm0,10.83c-6.25,0-12-.06-17.7,0-14,.19-23.43,9-24.88,22.94-.72,7-1.64,13.89-2.5,20.83q-5.46,44.23-11,88.47c-3.69,29.87-7.44,59.73-11,89.61-.7,5.91-1.58,12.06-.71,17.85,1.71,11.31,11.92,18.55,24.68,18.56q55.32,0,110.64,0,51.75,0,103.5,0c16.28,0,26.53-11,24.91-27.21-1.54-15.4-3.66-30.75-5.56-46.12q-5.05-41.07-10.14-82.16c-3.34-27.14-6.57-54.29-10-81.42-1.32-10.4-8.12-18.75-17.75-20.35-7.9-1.32-16.08-.95-24.61-1.36v4.82c0,10.75,0,21.49,0,32.24,0,4.23-2.6,6.82-6.11,6.25s-4.84-3.06-4.83-6.48c0-10.75,0-21.5,0-32.24,0-1.33-.12-2.66-.19-4.05H907.22c-.06,1.49-.17,2.83-.18,4.17q0,15,0,30c0,6-1.58,8.56-5.3,8.7-3.89.14-5.65-2.57-5.65-8.71ZM907,447.87h106c0-7.4.22-14.5,0-21.59-.93-26.06-18.77-46.49-44.37-51C944.55,371,919.9,385,910.68,408,905.53,420.9,907.41,434.31,907,447.87Z" transform="translate(-816.61 -363.38)"/><path class="cls-1" d="M896.08,459.14v34.33c0,6.14,1.76,8.85,5.65,8.71,3.72-.14,5.3-2.72,5.3-8.7q0-15,0-30c0-1.34.12-2.68.18-4.17h105.64c.07,1.39.19,2.72.19,4.05,0,10.74,0,21.49,0,32.24,0,3.42,1.21,5.9,4.83,6.48s6.08-2,6.11-6.25c.07-10.75,0-21.49,0-32.24v-4.82c8.53.41,16.71,0,24.61,1.36,9.63,1.6,16.43,9.95,17.75,20.35,3.43,27.13,6.66,54.28,10,81.42q5,41.08,10.14,82.16c1.9,15.37,4,30.72,5.56,46.12,1.62,16.16-8.63,27.18-24.91,27.21q-51.75.09-103.5,0-55.32,0-110.64,0c-12.76,0-23-7.25-24.68-18.56-.87-5.79,0-11.94.71-17.85,3.55-29.88,7.3-59.74,11-89.61q5.46-44.24,11-88.47c.86-6.94,1.78-13.88,2.5-20.83,1.45-13.93,10.92-22.75,24.88-22.94C884.1,459.08,889.83,459.14,896.08,459.14Z" transform="translate(-816.61 -363.38)"/><path class="cls-1" d="M907,447.87c.38-13.56-1.5-27,3.65-39.85,9.22-23,33.87-37,57.94-32.78,25.6,4.55,43.44,25,44.37,51,.25,7.09,0,14.19,0,21.59Z" transform="translate(-816.61 -363.38)"/><text class="cls-2" transform="translate(225.92 338.05)">B</text></svg>